#!OML:ASF X:\für Bonn\!DataBase\2005_08_12_Daniel\c3d\Daniel.ASF
:FULLY-SPECIFIED
:DEGREES
301
root 1.46482 17.0297 -16.0763 361.787 18.6003 1.09769
lowerback 65.4061 -3.55089 7.68109
upperback 10.6714 0.984879 -4.11894
thorax -9.24876 1.08903 -8.44625
lowerneck -3.65001 -5.93139 0.098126
upperneck 7.84675 -7.96567 1.22099
head 3.20227 -3.87008 0.0678431
rclavicle 1.59028e-015 7.67309e-014
rhumerus 190.593 -184.452 -253.743
rradius 15.2545
rwrist 23.7186
rhand -16.3957 6.64962
rfingers 7.12502
rthumb 9.81836 -23.1015
lclavicle 1.59028e-015 7.67309e-014
lhumerus -20.9814 -5.21434 89.6212
lradius 36.2463
lwrist -1.64277
lhand -9.27045 -8.5669
lfingers 7.12502
lthumb 16.6861 20.7359
rfemur -24.6599 0.124607 10.7779
rtibia 45.0222
rfoot -22.9308 -11.311
rtoes -15.4762
lfemur -33.9033 -13.5142 -20.3324
ltibia 49.4185
lfoot -16.6843 -10.7848
ltoes -5.03274
302
root 1.50677 17.0487 -16.0299 361.254 18.3275 0.918552
lowerback 64.518 -3.33384 7.47254
upperback 10.728 0.986612 -4.15165
thorax -9.21311 1.07446 -8.40145
lowerneck -3.64476 -5.81185 0.281034
upperneck 7.98602 -7.80139 0.975579
head 3.22809 -3.79112 -0.0368381
rclavicle -1.03368e-014 1.90833e-014
rhumerus 189.348 -184.135 -254.221
rradius 15.2364
rwrist 24.0782
rhand -16.0796 6.63781
rfingers 7.12502
rthumb 10.1233 -23.0987
lclavicle -1.03368e-014 1.90833e-014
lhumerus -20.9093 -4.49634 89.2325
lradius 35.5956
lwrist -2.8325
lhand -9.12431 -8.05102
lfingers 7.12502
lthumb 16.8268 21.2399
rfemur -23.6607 0.445305 10.9179
rtibia 44.4426
rfoot -22.7692 -11.3993
rtoes -15.9221
lfemur -32.9143 -13.6933 -20.3783
ltibia 49.198
lfoot -17.013 -10.3471
ltoes -5.00834
303
root 1.54869 17.0648 -15.9813 360.713 18.0627 0.74164
lowerback 63.6341 -3.13798 7.28578
upperback 10.7756 0.984284 -4.19379
thorax -9.17949 1.05885 -8.37372
lowerneck -3.63381 -5.68249 0.500387
upperneck 8.18231 -7.62513 0.718749
head 3.27146 -3.7047 -0.151986
rclavicle -3.65764e-014 8.42847e-014
rhumerus 188.126 -183.732 -254.703
rradius 15.186
rwrist 24.4661
rhand -15.8014 6.59373
rfingers 7.12502
rthumb 10.3918 -23.1295
lclavicle -3.65764e-014 8.42847e-014
lhumerus -20.8321 -3.81821 88.8144
lradius 34.9732
lwrist -3.98319
lhand -8.86632 -7.50011
lfingers 7.12502
lthumb 17.0751 21.7695
rfemur -22.6995 0.717949 11.0585
rtibia 43.9614
rfoot -22.5757 -11.4646
rtoes -16.2436
lfemur -31.9365 -13.8485 -20.433
ltibia 49.0084
lfoot -17.3358 -9.95986
ltoes -4.89839
304
root 1.59009 17.0781 -15.9309 360.191 17.8327 0.582922
lowerback 62.7258 -2.96122 7.07813
upperback 10.8239 0.958459 -4.20277
thorax -9.14058 1.03066 -8.28651
lowerneck -3.59296 -5.543 0.645616
upperneck 8.35517 -7.42751 0.441285
head 3.3046 -3.6113 -0.259346
rclavicle -5.00937e-014 1.10922e-013
rhumerus 186.923 -183.194 -255.159
rradius 15.1385
rwrist 24.9882
rhand -15.5011 6.6587
rfingers 7.12502
rthumb 10.6814 -23.0498
lclavicle -5.00937e-014 1.10922e-013
lhumerus -20.7389 -2.95419 88.4359
lradius 34.3528
lwrist -5.29686
lhand -8.60401 -7.0024
lfingers 7.12502
lthumb 17.3276 22.2452
rfemur -21.8163 0.897001 11.1847
rtibia 43.6067
rfoot -22.3928 -11.4678
rtoes -16.6052
lfemur -30.9831 -13.9999 -20.5103
ltibia 48.8493
lfoot -17.6901 -9.61191
ltoes -4.87152
305
root 1.63132 17.0888 -15.878 359.682 17.6136 0.425501
lowerback 61.8112 -2.79985 6.90907
upperback 10.8566 0.942989 -4.22142
thorax -9.1082 1.00724 -8.23105
lowerneck -3.43933 -5.41488 0.758974
upperneck 8.45149 -7.24636 0.239777
head 3.29547 -3.52547 -0.332491
rclavicle 3.26007e-014 -6.75868e-015
rhumerus 185.714 -182.537 -255.609
rradius 15.0821
rwrist 25.543
rhand -15.2149 6.7435
rfingers 7.12502
rthumb 10.9574 -22.9506
lclavicle 3.26007e-014 -6.75868e-015
lhumerus -20.6646 -2.18867 88.058
lradius 33.7909
lwrist -6.50005
lhand -8.32967 -6.53504
lfingers 7.12502
lthumb 17.5916 22.6891
rfemur -21.0157 1.02827 11.3108
rtibia 43.3758
rfoot -22.1901 -11.4679
rtoes -16.9234
lfemur -30.0526 -14.1506 -20.5987
ltibia 48.7072
lfoot -18.0375 -9.25488
ltoes -4.81799
306
root 1.67177 17.0989 -15.8244 359.179 17.4066 0.285823
lowerback 60.9313 -2.62898 6.69133
upperback 10.8777 0.921513 -4.2141
thorax -9.08378 0.978955 -8.12085
lowerneck -3.47105 -5.27965 0.898706
upperneck 8.67317 -7.05652 -0.0127885
head 3.3628 -3.43458 -0.435503
rclavicle 1.23246e-014 -2.74323e-014
rhumerus 184.537 -181.945 -255.984
rradius 15.0184
rwrist 26.172
rhand -15.0177 6.96691
rfingers 7.12502
rthumb 11.1477 -22.717
lclavicle 1.23246e-014 -2.74323e-014
lhumerus -20.5429 -1.33317 87.6981
lradius 33.1964
lwrist -7.74536
lhand -8.1566 -6.22299
lfingers 7.12502
lthumb 17.7582 22.9861
rfemur -20.2989 1.12063 11.4188
rtibia 43.2819
rfoot -21.9512 -11.4562
rtoes -17.0131
lfemur -29.1153 -14.2668 -20.7046
ltibia 48.5594
lfoot -18.3939 -8.94228
ltoes -4.72777
307
root 1.71207 17.1105 -15.7692 358.694 17.2094 0.165914
lowerback 60.0671 -2.4506 6.43189
upperback 10.8874 0.894974 -4.18178
thorax -9.06675 0.94621 -7.9605
lowerneck -3.59574 -5.12933 0.995486
upperneck 8.89762 -6.84571 -0.259099
head 3.45225 -3.33483 -0.532097
rclavicle 3.29983e-014 -5.94366e-014
rhumerus 183.403 -181.397 -256.291
rradius 14.9722
rwrist 26.7604
rhand -14.8077 7.20428
rfingers 7.12502
rthumb 11.3502 -22.4686
lclavicle 3.29983e-014 -5.94366e-014
lhumerus -20.4477 -0.422747 87.3604
lradius 32.6826
lwrist -8.94794
lhand -8.01695 -6.02397
lfingers 7.12502
lthumb 17.8925 23.1729
rfemur -19.671 1.19969 11.5287
rtibia 43.3127
rfoot -21.6116 -11.5474
rtoes -17.3545
lfemur -28.1711 -14.3654 -20.8352
ltibia 48.3883
lfoot -18.7211 -8.67083
ltoes -4.67544
308
root 1.75107 17.124 -15.7131 358.233 17.0086 0.0465868
lowerback 59.2123 -2.26295 6.16295
upperback 10.8928 0.882242 -4.13698
thorax -9.04484 0.919322 -7.78674
lowerneck -3.88015 -4.98645 1.07541
upperneck 9.22967 -6.6472 -0.48959
head 3.6128 -3.24014 -0.629347
rclavicle 2.5842e-014 -4.49253e-014
rhumerus 182.304 -180.864 -256.551
rradius 14.9137
rwrist 27.3944
rhand -14.7069 7.52649
rfingers 7.12502
rthumb 11.4474 -22.141
lclavicle 2.5842e-014 -4.49253e-014
lhumerus -20.2755 0.478461 87.0452
lradius 32.1288
lwrist -10.1178
lhand -7.94528 -6.0156
lfingers 7.12502
lthumb 17.9615 23.175
rfemur -19.1735 1.25055 11.6675
rtibia 43.4812
rfoot -21.127 -11.7327
rtoes -17.8819
lfemur -27.2413 -14.423 -20.9585
ltibia 48.1866
lfoot -19.0271 -8.41774
ltoes -4.56854
309
root 1.78912 17.1382 -15.6554 357.772 16.8048 -0.0718252
lowerback 58.362 -2.0664 5.87843
upperback 10.9159 0.88109 -4.07393
thorax -8.99352 0.899085 -7.58862
lowerneck -4.22511 -4.841 1.14037
upperneck 9.53799 -6.44691 -0.69511
head 3.78039 -3.14509 -0.717578
rclavicle -2.78299e-015 7.51406e-014
rhumerus 181.275 -180.343 -256.755
rradius 14.8683
rwrist 28.0107
rhand -14.5888 7.85176
rfingers 7.12502
rthumb 11.5613 -21.8094
lclavicle -2.78299e-015 7.51406e-014
lhumerus -20.0205 1.4397 86.7706
lradius 31.5662
lwrist -11.2248
lhand -8.03083 -6.12002
lfingers 7.12502
lthumb 17.8792 23.0781
rfemur -18.7615 1.33113 11.8091
rtibia 43.7873
rfoot -20.5926 -11.9692
rtoes -18.2494
lfemur -26.2874 -14.4187 -21.0822
ltibia 47.9568
lfoot -19.3389 -8.23808
ltoes -4.51291
310
root 1.82634 17.1524 -15.5974 357.352 16.6077 -0.170616
lowerback 57.4954 -1.87431 5.57338
upperback 10.9236 0.869141 -4.00704
thorax -8.95288 0.872754 -7.37149
lowerneck -4.45328 -4.68513 1.2081
upperneck 9.77624 -6.23051 -0.895506
head 3.90245 -3.04312 -0.798406
rclavicle 1.98785e-015 -9.54166e-015
rhumerus 180.283 -179.699 -256.959
rradius 14.7976
rwrist 28.7859
rhand -14.4305 8.16387
rfingers 7.12502
rthumb 11.714 -21.4886
lclavicle 1.98785e-015 -9.54166e-015
lhumerus -19.7816 2.41325 86.5073
lradius 31.0493
lwrist -12.1368
lhand -8.17595 -6.28253
lfingers 7.12502
lthumb 17.7395 22.9283
rfemur -18.4752 1.48266 11.9287
rtibia 44.2314
rfoot -20.0717 -12.2372
rtoes -18.4371
lfemur -25.3688 -14.3625 -21.2151
ltibia 47.7122
lfoot -19.6172 -8.09107
ltoes -4.39258
311
root 1.86273 17.1668 -15.5376 356.931 16.4259 -0.270763
lowerback 56.6097 -1.6971 5.24833
upperback 10.9444 0.839028 -3.91902
thorax -8.88972 0.838677 -7.11176
lowerneck -4.67606 -4.51247 1.11597
upperneck 10.0222 -5.98882 -0.979751
head 4.03727 -2.92976 -0.812324
rclavicle 5.46658e-014 -7.196e-014
rhumerus 179.334 -179.174 -257.125
rradius 14.7391
rwrist 29.473
rhand -14.3261 8.48749
rfingers 7.12502
rthumb 11.8146 -21.1592
lclavicle 5.46658e-014 -7.196e-014
lhumerus -19.5481 3.45264 86.2752
lradius 30.5845
lwrist -12.9129
lhand -8.46281 -6.38636
lfingers 7.12502
lthumb 17.4635 22.8492
rfemur -18.2697 1.74701 12.0632
rtibia 44.8091
rfoot -19.6231 -12.6026
rtoes -18.5168
lfemur -24.445 -14.2565 -21.3416
ltibia 47.4569
lfoot -19.8733 -7.98505
ltoes -4.29708
312
root 1.89831 17.1799 -15.4774 356.534 16.2569 -0.371755
lowerback 55.7025 -1.56104 4.97048
upperback 10.9789 0.789762 -3.86352
thorax -8.80171 0.800059 -6.9
lowerneck -4.82487 -4.33972 0.991307
upperneck 10.1839 -5.74925 -0.996191
head 4.13119 -2.81683 -0.793367
rclavicle 1.78906e-014 2.94201e-014
rhumerus 178.406 -178.757 -257.3
rradius 14.7359
rwrist 29.9264
rhand -14.2037 8.67105
rfingers 7.12502
rthumb 11.9327 -20.9689
lclavicle 1.78906e-014 2.94201e-014
lhumerus -19.3228 4.38853 86.0138
lradius 30.1891
lwrist -13.4586
lhand -8.90148 -6.50361
lfingers 7.12502
lthumb 17.0413 22.7689
rfemur -18.1734 1.98302 12.2051
rtibia 45.4993
rfoot -19.1834 -12.9955
rtoes -18.5621
lfemur -23.5644 -14.1148 -21.4476
ltibia 47.1995
lfoot -20.13 -7.97046
ltoes -4.10474
313
root 1.93495 17.1936 -15.4153 356.159 16.0613 -0.466538
lowerback 54.7561 -1.42821 4.70356
upperback 11.0376 0.746187 -3.81641
thorax -8.6727 0.766543 -6.70335
lowerneck -4.94983 -4.17273 0.796207
upperneck 10.322 -5.51575 -0.957514
head 4.21582 -2.70743 -0.742286
rclavicle -3.81667e-014 -7.00405e-015
rhumerus 177.562 -178.265 -257.47
rradius 14.6975
rwrist 30.3833
rhand -14.0362 8.7902
rfingers 7.12502
rthumb 12.0942 -20.8403
lclavicle -3.81667e-014 -7.00405e-015
lhumerus -19.1187 5.19834 85.746
lradius 29.9048
lwrist -13.744
lhand -9.34022 -6.56604
lfingers 7.12502
lthumb 16.6189 22.7424
rfemur -18.1701 2.20269 12.3325
rtibia 46.2899
rfoot -18.7224 -13.3708
rtoes -18.4961
lfemur -22.6864 -13.9142 -21.556
ltibia 46.9361
lfoot -20.3806 -7.98132
ltoes -3.98191
314
root 1.97 17.2069 -15.352 355.803 15.8809 -0.545922
lowerback 53.8488 -1.32741 4.44476
upperback 11.0404 0.674907 -3.78246
thorax -8.60376 0.717646 -6.5137
lowerneck -4.86714 -3.99866 0.531914
upperneck 10.3969 -5.2715 -0.844928
head 4.24019 -2.59246 -0.646078
rclavicle 5.91384e-015 -1.81888e-014
rhumerus 176.747 -177.815 -257.626
rradius 14.6084
rwrist 30.7743
rhand -13.8323 8.8759
rfingers 7.12502
rthumb 12.2908 -20.7429
lclavicle 5.91384e-015 -1.81888e-014
lhumerus -19.033 6.08453 85.4717
lradius 29.6935
lwrist -13.9358
lhand -9.87974 -6.4996
lfingers 7.12502
lthumb 16.0995 22.8517
rfemur -18.2332 2.35099 12.4459
rtibia 47.1577
rfoot -18.251 -13.7096
rtoes -18.0443
lfemur -21.8253 -13.7081 -21.6651
ltibia 46.6699
lfoot -20.6301 -7.99569
ltoes -3.88284
